<svg width="72" height="72" viewBox="0 0 72 72" fill="none"
    xmlns="http://www.w3.org/2000/svg">
    <rect width="72" height="72" rx="36" fill="#228765"/>
    <path d="M23.7001 32.5086C22.6652 30.8768 20.3034 29.6351 18.3549 30.1199C15.4141 30.8516 14.328 34.271 14.0812 36.9246C13.7018 41.0041 14.4564 45.1724 15.6184 49.0713C16.3943 51.6745 17.3877 54.2969 18.856 56.5913C19.6454 57.8247 20.5392 58.9972 22.0085 59.3874C23.5815 59.805 25.3105 59.5243 26.681 58.6496C28.038 57.7835 28.7433 56.4588 29.3644 55.0161C29.9392 53.6811 30.3625 52.2721 30.2542 50.7998C30.1777 49.76 29.8132 48.7926 29.3102 47.888C28.8927 47.1371 28.3109 46.3087 27.5641 45.8518C27.3046 45.693 26.6068 45.5058 26.3428 45.7369C25.9105 46.1155 25.6873 47.0157 25.7565 47.5789L25.8867 48.6394C25.9216 48.9239 25.9311 49.2276 26.0017 49.5059C26.0432 49.6697 26.2046 49.9703 26.2046 49.9703M31.162 56.3594C29.9304 53.6978 29.44 50.6271 29.5006 47.7046C29.5496 45.3369 29.8222 42.6907 30.8088 40.5236C30.8797 40.368 31.1458 39.8872 31.3843 39.7923C31.5722 39.7175 31.5553 39.9239 31.6927 39.9555M32.0285 47.6915C32.1314 47.6788 32.2343 47.6631 32.3371 47.6445M32.3371 47.6445C32.9881 47.5264 33.6311 47.2903 34.2035 46.9701C34.8016 46.6356 35.1555 46.1524 35.5422 45.5983C35.8775 45.1178 36.2468 44.6389 36.4967 44.1068C36.7603 43.5457 36.8315 43.0839 36.891 42.4743C36.9809 41.5551 36.2829 40.7086 35.3232 40.6629C34.931 40.6443 34.4757 40.6611 34.1298 40.867C33.5187 41.2306 33.0457 41.9737 32.7641 42.6073C32.1104 44.0782 32.0873 45.631 32.2807 47.2062C32.299 47.3549 32.3173 47.5008 32.3371 47.6445ZM32.3371 47.6445C32.4363 48.3653 32.5705 49.03 32.8998 49.7091C33.2088 50.346 33.3912 50.9751 34.0995 51.2494C34.5257 51.4145 35.1348 51.4932 35.5426 51.2447C35.7914 51.0931 35.9779 50.8532 36.1797 50.649C36.5544 50.2699 36.8892 49.9446 37.1404 49.4673C37.4939 48.7956 37.7656 48.0798 38.0716 47.3864C38.6945 45.9753 39.3343 44.572 39.9061 43.1391C40.2964 42.1612 40.674 41.1703 40.9634 40.1573C40.992 40.0575 41.0323 39.754 41.0449 39.8569M42.4523 38.5257C42.603 38.5072 42.5546 38.388 42.4439 38.3154C42.0871 38.0815 41.7403 38.5831 41.5966 38.8336C41.0624 39.7651 40.9494 40.9217 41.0159 41.9697C41.045 42.4273 41.1109 42.8846 41.1696 43.339C41.234 43.8372 41.264 44.4129 41.5184 44.8615C41.7318 45.2376 42.2437 45.4919 42.6504 45.6022C43.2997 45.7784 43.9104 45.1768 44.2457 44.7008C45.7947 42.5025 45.7266 39.694 46.2435 37.1862M46.111 37.3571C46.0708 36.967 46.1433 36.6288 46.1933 36.2446C46.2488 35.818 46.2785 35.4071 46.3177 34.9798C46.4548 33.4831 46.3487 31.9456 46.1938 30.4555C46.1273 29.8161 46.1463 29.1774 46.0678 28.5375L45.8346 26.6384C45.7219 25.7204 45.726 24.7012 45.3812 23.837M45.2849 23.8792C45.5023 25.45 45.7823 27.0072 46.1349 28.5531C46.3139 29.3383 46.4129 30.1371 46.5869 30.9227C46.7062 31.4618 46.7929 32.0063 46.8742 32.5517M46.8742 32.5517C46.9577 33.1125 47.0355 33.6743 47.1371 34.2325C47.2803 35.0195 47.516 35.7976 47.622 36.5894C47.7107 37.2515 47.7849 37.9159 47.8663 38.5789L48.2703 41.8692C48.2879 42.0125 48.2576 42.1097 48.0799 42.0048C47.9224 41.9119 47.7854 41.7497 47.6853 41.6016C47.0419 40.6498 46.9446 39.2157 46.8451 38.1318C46.6728 36.2545 46.6934 34.3923 46.8742 32.5517ZM46.8742 32.5517C47.4295 26.8963 49.4965 21.445 52.1244 16.3884C53.0233 14.6585 53.9927 12.8964 55.1801 11.3413C55.2365 11.2674 55.4965 10.8234 55.4646 11.082M42.5375 38.2599C42.57 38.5243 42.7498 38.714 42.874 38.9401C43.0954 39.3433 43.3408 39.7458 43.6108 40.1207C43.9925 40.6505 44.4074 41.129 44.9338 41.5227M32.9075 53.0233C33.0637 54.5494 32.6367 56.1346 33.2364 57.5954C33.4176 58.0369 33.6646 58.436 33.9118 58.8445C34.0742 59.113 34.371 59.3604 34.6982 59.3274C34.8222 59.3149 34.9135 59.2866 35.0029 59.1907C35.2576 58.9173 35.4399 58.5414 35.6561 58.2355C35.8702 57.9327 36.0843 57.6216 36.2781 57.305C36.5893 56.7968 36.7666 56.2099 37.0118 55.6682C37.4962 54.598 38.0348 53.4729 38.8183 52.5953C38.9778 52.4167 39.1323 52.2986 39.295 52.2168M39.295 52.2168C39.5646 52.0812 39.8567 52.0453 40.2308 51.9994L40.2427 51.998C40.2708 51.9945 40.5125 51.9768 40.4055 51.8948C40.2513 51.7766 39.9464 51.8609 39.788 51.9153C39.5884 51.9837 39.4269 52.0876 39.295 52.2168ZM39.295 52.2168C38.9838 52.5214 38.8373 52.9662 38.7437 53.4171C38.6212 54.0068 38.4809 55.0421 38.8695 55.574C39.2698 56.1219 39.9716 56.0249 40.4509 55.643C40.7688 55.3897 40.9669 55.0296 41.1403 54.6672C41.5592 53.7921 41.8389 52.8601 41.9485 51.8924C42.0287 51.1841 42.0867 50.4305 42.0851 49.6766M42.0851 49.6766C42.0835 48.8699 42.0138 48.0628 41.8305 47.3105C41.7711 47.067 41.6671 46.8227 41.5929 46.5825C41.4391 46.0849 41.6742 47.6221 41.7474 48.138C41.8213 48.6585 41.9602 49.1661 42.0851 49.6766ZM42.0851 49.6766C42.1358 49.8837 42.1841 50.0911 42.2249 50.3002C42.3502 50.9427 42.5422 51.7435 43.1222 52.1315C43.2753 52.2339 43.5394 52.1123 43.6727 52.0293C44.3208 51.6255 44.7784 50.9213 45.1582 50.2771C45.4486 49.7844 45.7408 49.2813 46.0171 48.7682M46.0171 48.7682C46.4094 48.0399 46.7698 47.2915 47.0476 46.5245C47.1364 46.2794 47.7774 44.6356 47.1783 44.4885C46.783 44.3914 46.3904 44.9048 46.2106 45.1844C45.8482 45.7484 45.7253 46.3889 45.7244 47.054C45.7236 47.646 45.8185 48.2126 46.0171 48.7682ZM46.0171 48.7682C46.0216 48.7807 46.0261 48.7931 46.0306 48.8056C46.1357 49.0926 46.2656 49.3506 46.5501 49.4898C46.7107 49.5683 46.9157 49.5823 47.078 49.5011C47.2997 49.3903 47.475 49.2066 47.6243 49.0116C48.1502 48.325 48.5624 47.5444 48.9789 46.7883C49.3357 46.1408 49.6742 45.483 50.0548 44.8523M50.0548 44.8523C50.3226 44.4085 50.6111 43.9781 50.9413 43.574C51.097 43.3835 51.2979 43.2061 51.5042 43.0708C51.6173 42.9966 51.8112 42.8513 51.5675 42.7329C50.9092 42.4132 50.3579 43.4165 50.2012 43.9326C50.113 44.2234 50.0718 44.537 50.0548 44.8523ZM50.0548 44.8523C50.0394 45.1366 50.0436 45.4223 50.0505 45.6941C50.0591 46.0341 50.031 46.5102 50.3024 46.762C50.8002 47.2238 51.207 46.3019 51.4019 45.9322C51.6385 45.4831 51.7279 45.0057 51.8457 44.5156C51.9134 44.2339 51.9361 44.1016 52.1113 44.3768C52.1682 44.4661 52.3007 45.0681 52.4911 44.8335C52.8973 44.3329 53.2251 43.7233 53.565 43.1826C54.217 42.1451 54.849 41.0698 55.6334 40.126C56.0557 39.6178 56.5323 39.1904 57.1274 38.9083C57.4154 38.7719 57.6458 38.7562 57.9416 38.6883" stroke="#EDFFF8" stroke-width="2" stroke-linecap="round"/>
</svg>
